<mxfile host="65bd71144e">
    <diagram id="34Bd_y1Ao4glyvhJhqIN" name="管理者側">
        <mxGraphModel dx="772" dy="439" grid="1" gridSize="10" guides="1" tooltips="1" connect="1" arrows="1" fold="1" page="1" pageScale="1" pageWidth="1169" pageHeight="827" math="0" shadow="0">
            <root>
                <mxCell id="0"/>
                <mxCell id="1" parent="0"/>
                <mxCell id="g50xE0wcD1OMA3XHy5KS-1" value="ログインページ" style="rounded=0;whiteSpace=wrap;html=1;" parent="1" vertex="1">
                    <mxGeometry x="90" y="90" width="100" height="40" as="geometry"/>
                </mxCell>
                <mxCell id="g50xE0wcD1OMA3XHy5KS-13" value="" style="edgeStyle=none;html=1;" parent="1" source="g50xE0wcD1OMA3XHy5KS-2" target="g50xE0wcD1OMA3XHy5KS-1" edge="1">
                    <mxGeometry relative="1" as="geometry"/>
                </mxCell>
                <mxCell id="g50xE0wcD1OMA3XHy5KS-2" value="トップページ" style="rounded=0;whiteSpace=wrap;html=1;" parent="1" vertex="1">
                    <mxGeometry x="250" y="90" width="100" height="40" as="geometry"/>
                </mxCell>
                <mxCell id="g50xE0wcD1OMA3XHy5KS-3" value="店舗一覧ページ" style="rounded=0;whiteSpace=wrap;html=1;" parent="1" vertex="1">
                    <mxGeometry x="410" y="90" width="100" height="40" as="geometry"/>
                </mxCell>
                <mxCell id="g50xE0wcD1OMA3XHy5KS-4" value="店舗詳細ページ" style="rounded=0;whiteSpace=wrap;html=1;" parent="1" vertex="1">
                    <mxGeometry x="570" y="90" width="100" height="40" as="geometry"/>
                </mxCell>
                <mxCell id="g50xE0wcD1OMA3XHy5KS-5" value="店舗登録ページ" style="rounded=0;whiteSpace=wrap;html=1;" parent="1" vertex="1">
                    <mxGeometry x="570" y="144" width="100" height="40" as="geometry"/>
                </mxCell>
                <mxCell id="g50xE0wcD1OMA3XHy5KS-6" value="店舗編集ページ" style="rounded=0;whiteSpace=wrap;html=1;" parent="1" vertex="1">
                    <mxGeometry x="570" y="198" width="100" height="40" as="geometry"/>
                </mxCell>
                <mxCell id="g50xE0wcD1OMA3XHy5KS-7" value="カテゴリ一覧&lt;div&gt;ページ&lt;/div&gt;&lt;div&gt;【管理者のみ】&lt;/div&gt;" style="rounded=0;whiteSpace=wrap;html=1;" parent="1" vertex="1">
                    <mxGeometry x="410" y="260" width="100" height="44" as="geometry"/>
                </mxCell>
                <mxCell id="g50xE0wcD1OMA3XHy5KS-8" value="会員一覧ページ&lt;div&gt;&lt;span style=&quot;color: rgb(63, 63, 63);&quot;&gt;【管理者のみ】&lt;/span&gt;&lt;/div&gt;" style="rounded=0;whiteSpace=wrap;html=1;" parent="1" vertex="1">
                    <mxGeometry x="410" y="497" width="100" height="40" as="geometry"/>
                </mxCell>
                <mxCell id="g50xE0wcD1OMA3XHy5KS-9" value="売上管理ページ&lt;div&gt;&lt;span style=&quot;color: rgb(63, 63, 63);&quot;&gt;【管理者のみ】&lt;/span&gt;&lt;/div&gt;" style="rounded=0;whiteSpace=wrap;html=1;" parent="1" vertex="1">
                    <mxGeometry x="410" y="673" width="100" height="40" as="geometry"/>
                </mxCell>
                <mxCell id="g50xE0wcD1OMA3XHy5KS-10" value="会員詳細ページ&lt;div&gt;&lt;span style=&quot;color: rgb(63, 63, 63);&quot;&gt;【管理者のみ】&lt;/span&gt;&lt;/div&gt;" style="rounded=0;whiteSpace=wrap;html=1;" parent="1" vertex="1">
                    <mxGeometry x="570" y="497" width="100" height="40" as="geometry"/>
                </mxCell>
                <mxCell id="g50xE0wcD1OMA3XHy5KS-11" value="管理者一覧&lt;div&gt;ページ&lt;/div&gt;&lt;div&gt;&lt;span style=&quot;color: rgb(63, 63, 63);&quot;&gt;【管理者のみ】&lt;/span&gt;&lt;/div&gt;" style="rounded=0;whiteSpace=wrap;html=1;" parent="1" vertex="1">
                    <mxGeometry x="410" y="596" width="100" height="50" as="geometry"/>
                </mxCell>
                <mxCell id="g50xE0wcD1OMA3XHy5KS-12" value="" style="endArrow=classic;html=1;exitX=1;exitY=0.5;exitDx=0;exitDy=0;" parent="1" source="g50xE0wcD1OMA3XHy5KS-1" edge="1">
                    <mxGeometry width="50" height="50" relative="1" as="geometry">
                        <mxPoint x="200" y="160" as="sourcePoint"/>
                        <mxPoint x="250" y="110" as="targetPoint"/>
                    </mxGeometry>
                </mxCell>
                <mxCell id="g50xE0wcD1OMA3XHy5KS-15" value="" style="endArrow=classic;html=1;exitX=1;exitY=0.5;exitDx=0;exitDy=0;" parent="1" source="g50xE0wcD1OMA3XHy5KS-2" edge="1">
                    <mxGeometry width="50" height="50" relative="1" as="geometry">
                        <mxPoint x="360" y="160" as="sourcePoint"/>
                        <mxPoint x="410" y="110" as="targetPoint"/>
                    </mxGeometry>
                </mxCell>
                <mxCell id="g50xE0wcD1OMA3XHy5KS-16" value="" style="endArrow=classic;html=1;exitX=1;exitY=0.5;exitDx=0;exitDy=0;" parent="1" edge="1">
                    <mxGeometry width="50" height="50" relative="1" as="geometry">
                        <mxPoint x="510" y="109.5" as="sourcePoint"/>
                        <mxPoint x="570" y="109.5" as="targetPoint"/>
                    </mxGeometry>
                </mxCell>
                <mxCell id="g50xE0wcD1OMA3XHy5KS-17" value="" style="endArrow=classic;html=1;exitX=1;exitY=0.5;exitDx=0;exitDy=0;" parent="1" edge="1">
                    <mxGeometry width="50" height="50" relative="1" as="geometry">
                        <mxPoint x="510" y="516.5" as="sourcePoint"/>
                        <mxPoint x="570" y="516.5" as="targetPoint"/>
                    </mxGeometry>
                </mxCell>
                <mxCell id="g50xE0wcD1OMA3XHy5KS-18" value="" style="endArrow=classic;html=1;entryX=0;entryY=0.5;entryDx=0;entryDy=0;rounded=0;curved=0;" parent="1" target="g50xE0wcD1OMA3XHy5KS-7" edge="1">
                    <mxGeometry width="50" height="50" relative="1" as="geometry">
                        <mxPoint x="380" y="110" as="sourcePoint"/>
                        <mxPoint x="410" y="294" as="targetPoint"/>
                        <Array as="points">
                            <mxPoint x="380" y="284"/>
                        </Array>
                    </mxGeometry>
                </mxCell>
                <mxCell id="g50xE0wcD1OMA3XHy5KS-19" value="" style="endArrow=classic;html=1;rounded=0;curved=0;" parent="1" edge="1">
                    <mxGeometry width="50" height="50" relative="1" as="geometry">
                        <mxPoint x="380" y="280" as="sourcePoint"/>
                        <mxPoint x="410" y="446" as="targetPoint"/>
                        <Array as="points">
                            <mxPoint x="380" y="446"/>
                        </Array>
                    </mxGeometry>
                </mxCell>
                <mxCell id="g50xE0wcD1OMA3XHy5KS-20" value="" style="endArrow=classic;html=1;rounded=0;curved=0;" parent="1" edge="1">
                    <mxGeometry width="50" height="50" relative="1" as="geometry">
                        <mxPoint x="380" y="507" as="sourcePoint"/>
                        <mxPoint x="410" y="623" as="targetPoint"/>
                        <Array as="points">
                            <mxPoint x="380" y="623"/>
                        </Array>
                    </mxGeometry>
                </mxCell>
                <mxCell id="g50xE0wcD1OMA3XHy5KS-21" value="" style="endArrow=classic;html=1;rounded=0;curved=0;" parent="1" edge="1">
                    <mxGeometry width="50" height="50" relative="1" as="geometry">
                        <mxPoint x="380" y="623" as="sourcePoint"/>
                        <mxPoint x="410" y="693" as="targetPoint"/>
                        <Array as="points">
                            <mxPoint x="380" y="693"/>
                        </Array>
                    </mxGeometry>
                </mxCell>
                <mxCell id="g50xE0wcD1OMA3XHy5KS-22" value="" style="endArrow=classic;html=1;rounded=0;curved=0;" parent="1" edge="1">
                    <mxGeometry width="50" height="50" relative="1" as="geometry">
                        <mxPoint x="540" y="110" as="sourcePoint"/>
                        <mxPoint x="570" y="163" as="targetPoint"/>
                        <Array as="points">
                            <mxPoint x="540" y="163"/>
                        </Array>
                    </mxGeometry>
                </mxCell>
                <mxCell id="g50xE0wcD1OMA3XHy5KS-23" value="" style="endArrow=classic;html=1;rounded=0;curved=0;" parent="1" edge="1">
                    <mxGeometry width="50" height="50" relative="1" as="geometry">
                        <mxPoint x="540" y="164" as="sourcePoint"/>
                        <mxPoint x="570" y="220" as="targetPoint"/>
                        <Array as="points">
                            <mxPoint x="540" y="220"/>
                        </Array>
                    </mxGeometry>
                </mxCell>
                <mxCell id="g50xE0wcD1OMA3XHy5KS-25" value="カテゴリ登録" style="rounded=0;whiteSpace=wrap;html=1;" parent="1" vertex="1">
                    <mxGeometry x="570" y="259" width="100" height="40" as="geometry"/>
                </mxCell>
                <mxCell id="g50xE0wcD1OMA3XHy5KS-26" value="カテゴリ編集" style="rounded=0;whiteSpace=wrap;html=1;" parent="1" vertex="1">
                    <mxGeometry x="570" y="314" width="100" height="40" as="geometry"/>
                </mxCell>
                <mxCell id="g50xE0wcD1OMA3XHy5KS-27" value="会員編集ページ&lt;div&gt;&lt;span style=&quot;color: rgb(63, 63, 63);&quot;&gt;【管理者のみ】&lt;/span&gt;&lt;/div&gt;" style="rounded=0;whiteSpace=wrap;html=1;" parent="1" vertex="1">
                    <mxGeometry x="570" y="546" width="100" height="40" as="geometry"/>
                </mxCell>
                <mxCell id="g50xE0wcD1OMA3XHy5KS-30" value="" style="endArrow=classic;html=1;exitX=1;exitY=0.5;exitDx=0;exitDy=0;" parent="1" edge="1">
                    <mxGeometry width="50" height="50" relative="1" as="geometry">
                        <mxPoint x="510" y="282.75" as="sourcePoint"/>
                        <mxPoint x="570" y="282.75" as="targetPoint"/>
                    </mxGeometry>
                </mxCell>
                <mxCell id="g50xE0wcD1OMA3XHy5KS-31" value="" style="endArrow=classic;html=1;rounded=0;curved=0;" parent="1" edge="1">
                    <mxGeometry width="50" height="50" relative="1" as="geometry">
                        <mxPoint x="540" y="283.25" as="sourcePoint"/>
                        <mxPoint x="570" y="336.25" as="targetPoint"/>
                        <Array as="points">
                            <mxPoint x="540" y="336.25"/>
                        </Array>
                    </mxGeometry>
                </mxCell>
                <mxCell id="g50xE0wcD1OMA3XHy5KS-33" value="" style="endArrow=classic;html=1;rounded=0;curved=0;" parent="1" edge="1">
                    <mxGeometry width="50" height="50" relative="1" as="geometry">
                        <mxPoint x="540" y="516" as="sourcePoint"/>
                        <mxPoint x="570" y="572" as="targetPoint"/>
                        <Array as="points">
                            <mxPoint x="540" y="572"/>
                        </Array>
                    </mxGeometry>
                </mxCell>
                <mxCell id="1fJdkVaX5mubvqtacBsB-1" value="レビュー一覧&lt;div&gt;ページ&lt;/div&gt;" style="rounded=0;whiteSpace=wrap;html=1;" parent="1" vertex="1">
                    <mxGeometry x="410" y="430" width="100" height="40" as="geometry"/>
                </mxCell>
                <mxCell id="1fJdkVaX5mubvqtacBsB-2" value="" style="endArrow=classic;html=1;rounded=0;curved=0;" parent="1" edge="1">
                    <mxGeometry width="50" height="50" relative="1" as="geometry">
                        <mxPoint x="380" y="440" as="sourcePoint"/>
                        <mxPoint x="410" y="516" as="targetPoint"/>
                        <Array as="points">
                            <mxPoint x="380" y="516"/>
                        </Array>
                    </mxGeometry>
                </mxCell>
                <mxCell id="2" value="レビュー詳細&lt;div&gt;ページ&lt;/div&gt;" style="rounded=0;whiteSpace=wrap;html=1;" parent="1" vertex="1">
                    <mxGeometry x="570" y="430" width="100" height="40" as="geometry"/>
                </mxCell>
                <mxCell id="3" value="" style="endArrow=classic;html=1;exitX=1;exitY=0.5;exitDx=0;exitDy=0;" parent="1" edge="1">
                    <mxGeometry width="50" height="50" relative="1" as="geometry">
                        <mxPoint x="510" y="445.5" as="sourcePoint"/>
                        <mxPoint x="570" y="445.5" as="targetPoint"/>
                    </mxGeometry>
                </mxCell>
                <mxCell id="4" value="" style="endArrow=classic;html=1;exitX=1;exitY=0.5;exitDx=0;exitDy=0;" parent="1" edge="1">
                    <mxGeometry width="50" height="50" relative="1" as="geometry">
                        <mxPoint x="510" y="390" as="sourcePoint"/>
                        <mxPoint x="570" y="390" as="targetPoint"/>
                    </mxGeometry>
                </mxCell>
                <mxCell id="5" value="予約一覧&lt;div&gt;ページ&lt;/div&gt;" style="rounded=0;whiteSpace=wrap;html=1;" parent="1" vertex="1">
                    <mxGeometry x="409" y="368" width="100" height="40" as="geometry"/>
                </mxCell>
                <mxCell id="7" value="予約詳細&lt;div&gt;ページ&lt;/div&gt;" style="rounded=0;whiteSpace=wrap;html=1;" parent="1" vertex="1">
                    <mxGeometry x="570" y="368" width="100" height="40" as="geometry"/>
                </mxCell>
                <mxCell id="8" value="" style="endArrow=classic;html=1;" parent="1" edge="1">
                    <mxGeometry width="50" height="50" relative="1" as="geometry">
                        <mxPoint x="380" y="390" as="sourcePoint"/>
                        <mxPoint x="409" y="390" as="targetPoint"/>
                    </mxGeometry>
                </mxCell>
            </root>
        </mxGraphModel>
    </diagram>
    <diagram id="sRgeUZMU-NJZNKIBelVj" name="会員側">
        <mxGraphModel dx="772" dy="439" grid="1" gridSize="10" guides="1" tooltips="1" connect="1" arrows="1" fold="1" page="1" pageScale="1" pageWidth="1169" pageHeight="827" math="0" shadow="0">
            <root>
                <mxCell id="0"/>
                <mxCell id="1" parent="0"/>
                <mxCell id="2" value="ログインページ" style="rounded=0;whiteSpace=wrap;html=1;" parent="1" vertex="1">
                    <mxGeometry x="90" y="90" width="100" height="40" as="geometry"/>
                </mxCell>
                <mxCell id="3" value="パスワード再設定&lt;div&gt;ページ&lt;/div&gt;" style="rounded=0;whiteSpace=wrap;html=1;" parent="1" vertex="1">
                    <mxGeometry x="90" y="160" width="100" height="40" as="geometry"/>
                </mxCell>
                <mxCell id="4" value="会員登録ページ" style="rounded=0;whiteSpace=wrap;html=1;" parent="1" vertex="1">
                    <mxGeometry x="90" y="260" width="100" height="40" as="geometry"/>
                </mxCell>
                <mxCell id="5" value="トップページ" style="rounded=0;whiteSpace=wrap;html=1;" parent="1" vertex="1">
                    <mxGeometry x="240" y="90" width="100" height="40" as="geometry"/>
                </mxCell>
                <mxCell id="6" value="店舗一覧ページ" style="rounded=0;whiteSpace=wrap;html=1;" parent="1" vertex="1">
                    <mxGeometry x="390" y="90" width="100" height="40" as="geometry"/>
                </mxCell>
                <mxCell id="7" value="店舗詳細ページ" style="rounded=0;whiteSpace=wrap;html=1;" parent="1" vertex="1">
                    <mxGeometry x="539.5" y="90" width="100" height="40" as="geometry"/>
                </mxCell>
                <mxCell id="8" value="お気に入り一覧&lt;div&gt;ページ&lt;/div&gt;&lt;div&gt;【有料会員のみ】&lt;/div&gt;" style="rounded=0;whiteSpace=wrap;html=1;" parent="1" vertex="1">
                    <mxGeometry x="390" y="160" width="100" height="50" as="geometry"/>
                </mxCell>
                <mxCell id="9" value="予約一覧ページ&lt;div&gt;&lt;span style=&quot;color: rgb(63, 63, 63);&quot;&gt;【有料会員のみ】&lt;/span&gt;&lt;/div&gt;" style="rounded=0;whiteSpace=wrap;html=1;" parent="1" vertex="1">
                    <mxGeometry x="390" y="230" width="100" height="50" as="geometry"/>
                </mxCell>
                <mxCell id="10" value="マイページ" style="rounded=0;whiteSpace=wrap;html=1;" parent="1" vertex="1">
                    <mxGeometry x="390" y="300" width="100" height="40" as="geometry"/>
                </mxCell>
                <mxCell id="11" value="会員情報編集&lt;div&gt;ページ&lt;/div&gt;" style="rounded=0;whiteSpace=wrap;html=1;" parent="1" vertex="1">
                    <mxGeometry x="539" y="300" width="100" height="40" as="geometry"/>
                </mxCell>
                <mxCell id="12" value="パスワード変更&lt;div&gt;ページ&lt;/div&gt;" style="rounded=0;whiteSpace=wrap;html=1;" parent="1" vertex="1">
                    <mxGeometry x="540" y="374" width="100" height="40" as="geometry"/>
                </mxCell>
                <mxCell id="14" value="クレジットカード登録・変更ページ&lt;div&gt;&lt;span style=&quot;color: rgb(63, 63, 63);&quot;&gt;【有料会員のみ】&lt;/span&gt;&lt;/div&gt;" style="rounded=0;whiteSpace=wrap;html=1;" parent="1" vertex="1">
                    <mxGeometry x="540" y="530" width="100" height="50" as="geometry"/>
                </mxCell>
                <mxCell id="15" value="予約作成&lt;div&gt;&lt;span style=&quot;color: rgb(63, 63, 63);&quot;&gt;【有料会員のみ】&lt;/span&gt;&lt;/div&gt;" style="rounded=0;whiteSpace=wrap;html=1;" parent="1" vertex="1">
                    <mxGeometry x="689" y="90" width="100" height="50" as="geometry"/>
                </mxCell>
                <mxCell id="17" value="有料会員登録&lt;div&gt;&lt;span style=&quot;background-color: transparent;&quot;&gt;ページ&lt;/span&gt;&lt;/div&gt;" style="rounded=0;whiteSpace=wrap;html=1;" parent="1" vertex="1">
                    <mxGeometry x="540" y="450" width="100" height="40" as="geometry"/>
                </mxCell>
                <mxCell id="18" value="レビュー投稿&lt;div&gt;&lt;span style=&quot;color: rgb(63, 63, 63);&quot;&gt;【有料会員のみ】&lt;/span&gt;&lt;/div&gt;" style="rounded=0;whiteSpace=wrap;html=1;" parent="1" vertex="1">
                    <mxGeometry x="689" y="160" width="100" height="50" as="geometry"/>
                </mxCell>
                <mxCell id="19" value="有料会員解約&lt;div&gt;&lt;span style=&quot;color: rgb(63, 63, 63);&quot;&gt;【有料会員のみ】&lt;/span&gt;&lt;/div&gt;" style="rounded=0;whiteSpace=wrap;html=1;" parent="1" vertex="1">
                    <mxGeometry x="540" y="612" width="100" height="50" as="geometry"/>
                </mxCell>
                <mxCell id="21" value="" style="endArrow=classic;html=1;exitX=1;exitY=0.5;exitDx=0;exitDy=0;startArrow=classic;startFill=1;" parent="1" source="2" edge="1">
                    <mxGeometry width="50" height="50" relative="1" as="geometry">
                        <mxPoint x="190" y="160" as="sourcePoint"/>
                        <mxPoint x="240" y="110" as="targetPoint"/>
                    </mxGeometry>
                </mxCell>
                <mxCell id="22" value="" style="endArrow=classic;html=1;exitX=1;exitY=0.5;exitDx=0;exitDy=0;" parent="1" edge="1">
                    <mxGeometry width="50" height="50" relative="1" as="geometry">
                        <mxPoint x="340" y="109.5" as="sourcePoint"/>
                        <mxPoint x="390" y="109.5" as="targetPoint"/>
                    </mxGeometry>
                </mxCell>
                <mxCell id="23" value="" style="endArrow=classic;html=1;exitX=1;exitY=0.5;exitDx=0;exitDy=0;" parent="1" edge="1">
                    <mxGeometry width="50" height="50" relative="1" as="geometry">
                        <mxPoint x="490" y="109.5" as="sourcePoint"/>
                        <mxPoint x="540" y="109.5" as="targetPoint"/>
                    </mxGeometry>
                </mxCell>
                <mxCell id="24" value="" style="endArrow=classic;html=1;exitX=1;exitY=0.5;exitDx=0;exitDy=0;" parent="1" edge="1">
                    <mxGeometry width="50" height="50" relative="1" as="geometry">
                        <mxPoint x="639.5" y="109.5" as="sourcePoint"/>
                        <mxPoint x="689.5" y="109.5" as="targetPoint"/>
                    </mxGeometry>
                </mxCell>
                <mxCell id="25" value="" style="endArrow=classic;html=1;exitX=1;exitY=0.5;exitDx=0;exitDy=0;" parent="1" edge="1">
                    <mxGeometry width="50" height="50" relative="1" as="geometry">
                        <mxPoint x="489.5" y="319.5" as="sourcePoint"/>
                        <mxPoint x="539.5" y="319.5" as="targetPoint"/>
                    </mxGeometry>
                </mxCell>
                <mxCell id="27" value="" style="endArrow=classic;html=1;rounded=0;curved=0;" parent="1" edge="1">
                    <mxGeometry width="50" height="50" relative="1" as="geometry">
                        <mxPoint x="360" y="110" as="sourcePoint"/>
                        <mxPoint x="390" y="180" as="targetPoint"/>
                        <Array as="points">
                            <mxPoint x="360" y="180"/>
                        </Array>
                    </mxGeometry>
                </mxCell>
                <mxCell id="28" value="" style="endArrow=classic;html=1;rounded=0;curved=0;" parent="1" edge="1">
                    <mxGeometry width="50" height="50" relative="1" as="geometry">
                        <mxPoint x="360" y="160" as="sourcePoint"/>
                        <mxPoint x="390" y="256" as="targetPoint"/>
                        <Array as="points">
                            <mxPoint x="360" y="256"/>
                        </Array>
                    </mxGeometry>
                </mxCell>
                <mxCell id="29" value="" style="endArrow=classic;html=1;rounded=0;curved=0;" parent="1" edge="1">
                    <mxGeometry width="50" height="50" relative="1" as="geometry">
                        <mxPoint x="360" y="250" as="sourcePoint"/>
                        <mxPoint x="390" y="320" as="targetPoint"/>
                        <Array as="points">
                            <mxPoint x="360" y="320"/>
                        </Array>
                    </mxGeometry>
                </mxCell>
                <mxCell id="30" value="" style="endArrow=classic;html=1;rounded=0;curved=0;" parent="1" edge="1">
                    <mxGeometry width="50" height="50" relative="1" as="geometry">
                        <mxPoint x="509" y="320" as="sourcePoint"/>
                        <mxPoint x="539" y="395" as="targetPoint"/>
                        <Array as="points">
                            <mxPoint x="509" y="395"/>
                        </Array>
                    </mxGeometry>
                </mxCell>
                <mxCell id="31" value="" style="endArrow=classic;html=1;rounded=0;curved=0;" parent="1" edge="1">
                    <mxGeometry width="50" height="50" relative="1" as="geometry">
                        <mxPoint x="509" y="390" as="sourcePoint"/>
                        <mxPoint x="539" y="470" as="targetPoint"/>
                        <Array as="points">
                            <mxPoint x="509" y="470"/>
                        </Array>
                    </mxGeometry>
                </mxCell>
                <mxCell id="32" value="" style="endArrow=classic;html=1;rounded=0;curved=0;" parent="1" edge="1">
                    <mxGeometry width="50" height="50" relative="1" as="geometry">
                        <mxPoint x="509" y="470" as="sourcePoint"/>
                        <mxPoint x="539" y="560" as="targetPoint"/>
                        <Array as="points">
                            <mxPoint x="509" y="560"/>
                        </Array>
                    </mxGeometry>
                </mxCell>
                <mxCell id="34" value="" style="endArrow=classic;html=1;rounded=0;curved=0;" parent="1" edge="1">
                    <mxGeometry width="50" height="50" relative="1" as="geometry">
                        <mxPoint x="509" y="559" as="sourcePoint"/>
                        <mxPoint x="539" y="639" as="targetPoint"/>
                        <Array as="points">
                            <mxPoint x="509" y="639"/>
                        </Array>
                    </mxGeometry>
                </mxCell>
                <mxCell id="36" value="" style="endArrow=classic;html=1;rounded=0;curved=0;" parent="1" edge="1">
                    <mxGeometry width="50" height="50" relative="1" as="geometry">
                        <mxPoint x="659" y="110" as="sourcePoint"/>
                        <mxPoint x="689" y="186" as="targetPoint"/>
                        <Array as="points">
                            <mxPoint x="659" y="186"/>
                        </Array>
                    </mxGeometry>
                </mxCell>
                <mxCell id="37" value="" style="endArrow=classic;html=1;exitX=1;exitY=0.5;exitDx=0;exitDy=0;rounded=0;curved=0;" parent="1" source="4" edge="1">
                    <mxGeometry width="50" height="50" relative="1" as="geometry">
                        <mxPoint x="240" y="180" as="sourcePoint"/>
                        <mxPoint x="290" y="130" as="targetPoint"/>
                        <Array as="points">
                            <mxPoint x="290" y="280"/>
                        </Array>
                    </mxGeometry>
                </mxCell>
                <mxCell id="39" value="" style="endArrow=classic;html=1;exitX=0.5;exitY=0;exitDx=0;exitDy=0;startArrow=classic;startFill=1;" parent="1" source="3" edge="1">
                    <mxGeometry width="50" height="50" relative="1" as="geometry">
                        <mxPoint x="90" y="180" as="sourcePoint"/>
                        <mxPoint x="140" y="130" as="targetPoint"/>
                    </mxGeometry>
                </mxCell>
                <mxCell id="40" value="" style="endArrow=classic;html=1;entryX=1;entryY=0.75;entryDx=0;entryDy=0;rounded=0;curved=0;" parent="1" target="9" edge="1">
                    <mxGeometry width="50" height="50" relative="1" as="geometry">
                        <mxPoint x="789" y="120" as="sourcePoint"/>
                        <mxPoint x="839" y="70" as="targetPoint"/>
                        <Array as="points">
                            <mxPoint x="850" y="120"/>
                            <mxPoint x="850" y="268"/>
                        </Array>
                    </mxGeometry>
                </mxCell>
                <mxCell id="41" value="" style="endArrow=classic;html=1;entryX=0.5;entryY=1;entryDx=0;entryDy=0;rounded=0;curved=0;" parent="1" target="7" edge="1">
                    <mxGeometry width="50" height="50" relative="1" as="geometry">
                        <mxPoint x="490" y="190" as="sourcePoint"/>
                        <mxPoint x="540" y="140" as="targetPoint"/>
                        <Array as="points">
                            <mxPoint x="590" y="190"/>
                        </Array>
                    </mxGeometry>
                </mxCell>
                <mxCell id="42" value="" style="endArrow=none;html=1;entryX=0.5;entryY=1;entryDx=0;entryDy=0;rounded=0;curved=0;endFill=0;" parent="1" edge="1">
                    <mxGeometry width="50" height="50" relative="1" as="geometry">
                        <mxPoint x="490" y="240" as="sourcePoint"/>
                        <mxPoint x="590" y="180" as="targetPoint"/>
                        <Array as="points">
                            <mxPoint x="590" y="240"/>
                        </Array>
                    </mxGeometry>
                </mxCell>
                <mxCell id="8033o2TbjGatoIEYot67-42" value="" style="endArrow=classic;html=1;exitX=0.5;exitY=0;exitDx=0;exitDy=0;" parent="1" source="10" edge="1">
                    <mxGeometry width="50" height="50" relative="1" as="geometry">
                        <mxPoint x="469" y="330" as="sourcePoint"/>
                        <mxPoint x="440" y="280" as="targetPoint"/>
                    </mxGeometry>
                </mxCell>
                <mxCell id="8033o2TbjGatoIEYot67-43" value="" style="endArrow=classic;html=1;entryX=0;entryY=0.75;entryDx=0;entryDy=0;exitX=0;exitY=0.75;exitDx=0;exitDy=0;rounded=0;curved=0;" parent="1" source="10" target="8" edge="1">
                    <mxGeometry width="50" height="50" relative="1" as="geometry">
                        <mxPoint x="200" y="429" as="sourcePoint"/>
                        <mxPoint x="460" y="359" as="targetPoint"/>
                        <Array as="points">
                            <mxPoint x="320" y="330"/>
                            <mxPoint x="320" y="198"/>
                        </Array>
                    </mxGeometry>
                </mxCell>
            </root>
        </mxGraphModel>
    </diagram>
</mxfile>